<mxfile host="app.diagrams.net" agent="Mozilla/5.0 (Windows NT 10.0; Win64; x64) AppleWebKit/537.36 (KHTML, like Gecko) Chrome/129.0.0.0 Safari/537.36 Edg/129.0.0.0" version="24.7.17">
  <diagram name="Page-1" id="KLPauPyvZ0z7arTUOzBx">
    <mxGraphModel dx="1783" dy="986" grid="1" gridSize="10" guides="1" tooltips="1" connect="1" arrows="1" fold="1" page="1" pageScale="1" pageWidth="850" pageHeight="1100" math="0" shadow="0">
      <root>
        <mxCell id="0" />
        <mxCell id="1" parent="0" />
        <mxCell id="2MQ_-69pAGKDTEnByGKH-19" value="Steam Account" style="swimlane;childLayout=stackLayout;horizontal=1;startSize=50;horizontalStack=0;rounded=1;fontSize=14;fontStyle=0;strokeWidth=2;resizeParent=0;resizeLast=1;shadow=0;dashed=0;align=center;arcSize=4;whiteSpace=wrap;html=1;" vertex="1" parent="1">
          <mxGeometry x="240" y="390" width="160" height="160" as="geometry" />
        </mxCell>
        <mxCell id="2MQ_-69pAGKDTEnByGKH-20" value="&lt;u&gt;Steam ID PK&lt;/u&gt;&lt;div&gt;Username&lt;/div&gt;&lt;div&gt;Password&lt;/div&gt;&lt;div&gt;E-mail&lt;/div&gt;&lt;div&gt;Phone Number&lt;/div&gt;&lt;div&gt;2FA&amp;nbsp;&lt;/div&gt;&lt;div&gt;Balance&lt;/div&gt;" style="align=left;strokeColor=none;fillColor=none;spacingLeft=4;fontSize=12;verticalAlign=top;resizable=0;rotatable=0;part=1;html=1;" vertex="1" parent="2MQ_-69pAGKDTEnByGKH-19">
          <mxGeometry y="50" width="160" height="110" as="geometry" />
        </mxCell>
        <mxCell id="2MQ_-69pAGKDTEnByGKH-22" value="Steam Library" style="swimlane;childLayout=stackLayout;horizontal=1;startSize=50;horizontalStack=0;rounded=1;fontSize=14;fontStyle=0;strokeWidth=2;resizeParent=0;resizeLast=1;shadow=0;dashed=0;align=center;arcSize=4;whiteSpace=wrap;html=1;" vertex="1" parent="1">
          <mxGeometry x="670" y="650" width="160" height="120" as="geometry" />
        </mxCell>
        <mxCell id="2MQ_-69pAGKDTEnByGKH-23" value="&lt;u&gt;Library ID PK&lt;/u&gt;&lt;div&gt;Steam ID FK&lt;/div&gt;" style="align=left;strokeColor=none;fillColor=none;spacingLeft=4;fontSize=12;verticalAlign=top;resizable=0;rotatable=0;part=1;html=1;" vertex="1" parent="2MQ_-69pAGKDTEnByGKH-22">
          <mxGeometry y="50" width="160" height="70" as="geometry" />
        </mxCell>
        <mxCell id="2MQ_-69pAGKDTEnByGKH-24" value="Library Entry" style="swimlane;childLayout=stackLayout;horizontal=1;startSize=50;horizontalStack=0;rounded=1;fontSize=14;fontStyle=0;strokeWidth=2;resizeParent=0;resizeLast=1;shadow=0;dashed=0;align=center;arcSize=4;whiteSpace=wrap;html=1;" vertex="1" parent="1">
          <mxGeometry x="940" y="270" width="160" height="150" as="geometry" />
        </mxCell>
        <mxCell id="2MQ_-69pAGKDTEnByGKH-25" value="&lt;u&gt;Library ID FK&lt;/u&gt;&lt;div&gt;&lt;u&gt;Game ID FK&lt;/u&gt;&lt;/div&gt;&lt;div&gt;Install Status&lt;/div&gt;&lt;div&gt;Playtime&lt;/div&gt;&lt;div&gt;Date Added&lt;/div&gt;&lt;div&gt;Last Played&lt;/div&gt;" style="align=left;strokeColor=none;fillColor=none;spacingLeft=4;fontSize=12;verticalAlign=top;resizable=0;rotatable=0;part=1;html=1;" vertex="1" parent="2MQ_-69pAGKDTEnByGKH-24">
          <mxGeometry y="50" width="160" height="100" as="geometry" />
        </mxCell>
        <mxCell id="2MQ_-69pAGKDTEnByGKH-26" value="Game" style="swimlane;childLayout=stackLayout;horizontal=1;startSize=50;horizontalStack=0;rounded=1;fontSize=14;fontStyle=0;strokeWidth=2;resizeParent=0;resizeLast=1;shadow=0;dashed=0;align=center;arcSize=4;whiteSpace=wrap;html=1;" vertex="1" parent="1">
          <mxGeometry x="650" y="40" width="160" height="190" as="geometry" />
        </mxCell>
        <mxCell id="2MQ_-69pAGKDTEnByGKH-27" value="&lt;div&gt;&lt;u&gt;Game ID PK&lt;/u&gt;&lt;/div&gt;&lt;div&gt;Name&lt;/div&gt;&lt;div&gt;Publisher&lt;/div&gt;&lt;div&gt;Genre&lt;/div&gt;&lt;div&gt;Release Date&lt;/div&gt;&lt;div&gt;Price&lt;/div&gt;&lt;div&gt;Space Required&lt;/div&gt;&lt;div&gt;Discount Percentage&lt;/div&gt;&lt;div&gt;Price after Discount&lt;/div&gt;" style="align=left;strokeColor=none;fillColor=none;spacingLeft=4;fontSize=12;verticalAlign=top;resizable=0;rotatable=0;part=1;html=1;" vertex="1" parent="2MQ_-69pAGKDTEnByGKH-26">
          <mxGeometry y="50" width="160" height="140" as="geometry" />
        </mxCell>
        <mxCell id="2MQ_-69pAGKDTEnByGKH-28" value="Review" style="swimlane;childLayout=stackLayout;horizontal=1;startSize=50;horizontalStack=0;rounded=1;fontSize=14;fontStyle=0;strokeWidth=2;resizeParent=0;resizeLast=1;shadow=0;dashed=0;align=center;arcSize=4;whiteSpace=wrap;html=1;" vertex="1" parent="1">
          <mxGeometry x="240" y="50" width="160" height="130" as="geometry" />
        </mxCell>
        <mxCell id="2MQ_-69pAGKDTEnByGKH-29" value="&lt;u&gt;Steam ID FK&lt;/u&gt;&lt;div&gt;&lt;u&gt;Game ID FK&lt;/u&gt;&lt;/div&gt;&lt;div&gt;Rating&lt;/div&gt;&lt;div&gt;Date&lt;/div&gt;&lt;div&gt;Review Text&lt;/div&gt;" style="align=left;strokeColor=none;fillColor=none;spacingLeft=4;fontSize=12;verticalAlign=top;resizable=0;rotatable=0;part=1;html=1;" vertex="1" parent="2MQ_-69pAGKDTEnByGKH-28">
          <mxGeometry y="50" width="160" height="80" as="geometry" />
        </mxCell>
        <mxCell id="2MQ_-69pAGKDTEnByGKH-30" value="Transaction" style="swimlane;childLayout=stackLayout;horizontal=1;startSize=50;horizontalStack=0;rounded=1;fontSize=14;fontStyle=0;strokeWidth=2;resizeParent=0;resizeLast=1;shadow=0;dashed=0;align=center;arcSize=4;whiteSpace=wrap;html=1;" vertex="1" parent="1">
          <mxGeometry x="650" y="420" width="160" height="130" as="geometry" />
        </mxCell>
        <mxCell id="2MQ_-69pAGKDTEnByGKH-31" value="&lt;u&gt;Transaction ID PK&lt;/u&gt;&lt;div&gt;Steam ID FK&lt;/div&gt;&lt;div&gt;Game ID FK&lt;/div&gt;&lt;div&gt;Date&lt;/div&gt;&lt;div&gt;Amount&lt;/div&gt;" style="align=left;strokeColor=none;fillColor=none;spacingLeft=4;fontSize=12;verticalAlign=top;resizable=0;rotatable=0;part=1;html=1;" vertex="1" parent="2MQ_-69pAGKDTEnByGKH-30">
          <mxGeometry y="50" width="160" height="80" as="geometry" />
        </mxCell>
        <mxCell id="2MQ_-69pAGKDTEnByGKH-32" value="Personal Achievements" style="swimlane;childLayout=stackLayout;horizontal=1;startSize=50;horizontalStack=0;rounded=1;fontSize=14;fontStyle=0;strokeWidth=2;resizeParent=0;resizeLast=1;shadow=0;dashed=0;align=center;arcSize=4;whiteSpace=wrap;html=1;" vertex="1" parent="1">
          <mxGeometry x="680" y="880" width="160" height="130" as="geometry" />
        </mxCell>
        <mxCell id="2MQ_-69pAGKDTEnByGKH-33" value="&lt;u&gt;Steam ID FK&lt;/u&gt;&lt;div&gt;&lt;u&gt;Achievement ID FK&lt;/u&gt;&lt;/div&gt;&lt;div&gt;Status&lt;/div&gt;&lt;div&gt;Progress %&lt;/div&gt;&lt;div&gt;Date Completed&lt;/div&gt;" style="align=left;strokeColor=none;fillColor=none;spacingLeft=4;fontSize=12;verticalAlign=top;resizable=0;rotatable=0;part=1;html=1;" vertex="1" parent="2MQ_-69pAGKDTEnByGKH-32">
          <mxGeometry y="50" width="160" height="80" as="geometry" />
        </mxCell>
        <mxCell id="2MQ_-69pAGKDTEnByGKH-34" value="Achievement" style="swimlane;childLayout=stackLayout;horizontal=1;startSize=50;horizontalStack=0;rounded=1;fontSize=14;fontStyle=0;strokeWidth=2;resizeParent=0;resizeLast=1;shadow=0;dashed=0;align=center;arcSize=4;whiteSpace=wrap;html=1;" vertex="1" parent="1">
          <mxGeometry x="1110" y="40" width="160" height="135" as="geometry" />
        </mxCell>
        <mxCell id="2MQ_-69pAGKDTEnByGKH-35" value="&lt;u&gt;Achievement ID PK&lt;/u&gt;&lt;div&gt;Game ID FK&lt;/div&gt;&lt;div&gt;Name&lt;/div&gt;&lt;div&gt;Requirements&lt;/div&gt;&lt;div&gt;Global Achievement %&lt;/div&gt;" style="align=left;strokeColor=none;fillColor=none;spacingLeft=4;fontSize=12;verticalAlign=top;resizable=0;rotatable=0;part=1;html=1;" vertex="1" parent="2MQ_-69pAGKDTEnByGKH-34">
          <mxGeometry y="50" width="160" height="85" as="geometry" />
        </mxCell>
        <mxCell id="2MQ_-69pAGKDTEnByGKH-39" value="" style="edgeStyle=entityRelationEdgeStyle;fontSize=12;html=1;endArrow=ERzeroToMany;startArrow=ERmandOne;rounded=0;exitX=1;exitY=0;exitDx=0;exitDy=0;entryX=1;entryY=0.25;entryDx=0;entryDy=0;" edge="1" parent="1" source="2MQ_-69pAGKDTEnByGKH-19" target="2MQ_-69pAGKDTEnByGKH-29">
          <mxGeometry width="100" height="100" relative="1" as="geometry">
            <mxPoint x="360" y="280" as="sourcePoint" />
            <mxPoint x="460" y="180" as="targetPoint" />
          </mxGeometry>
        </mxCell>
        <mxCell id="2MQ_-69pAGKDTEnByGKH-42" value="Is written by" style="edgeLabel;html=1;align=center;verticalAlign=middle;resizable=0;points=[];" vertex="1" connectable="0" parent="2MQ_-69pAGKDTEnByGKH-39">
          <mxGeometry x="0.7038" y="-2" relative="1" as="geometry">
            <mxPoint y="64" as="offset" />
          </mxGeometry>
        </mxCell>
        <mxCell id="2MQ_-69pAGKDTEnByGKH-43" value="Writes" style="edgeLabel;html=1;align=center;verticalAlign=middle;resizable=0;points=[];" vertex="1" connectable="0" parent="2MQ_-69pAGKDTEnByGKH-39">
          <mxGeometry x="-0.6467" y="-2" relative="1" as="geometry">
            <mxPoint y="-59" as="offset" />
          </mxGeometry>
        </mxCell>
        <mxCell id="2MQ_-69pAGKDTEnByGKH-48" value="" style="edgeStyle=entityRelationEdgeStyle;fontSize=12;html=1;endArrow=ERzeroToMany;startArrow=ERmandOne;rounded=0;entryX=0.986;entryY=0.188;entryDx=0;entryDy=0;entryPerimeter=0;exitX=-0.003;exitY=0.225;exitDx=0;exitDy=0;exitPerimeter=0;" edge="1" parent="1" source="2MQ_-69pAGKDTEnByGKH-26" target="2MQ_-69pAGKDTEnByGKH-28">
          <mxGeometry width="100" height="100" relative="1" as="geometry">
            <mxPoint x="600" y="210" as="sourcePoint" />
            <mxPoint x="540" y="60" as="targetPoint" />
            <Array as="points">
              <mxPoint x="610" y="170" />
              <mxPoint x="510" y="130" />
              <mxPoint x="510" y="130" />
            </Array>
          </mxGeometry>
        </mxCell>
        <mxCell id="2MQ_-69pAGKDTEnByGKH-49" value="Is written for&amp;nbsp;" style="edgeLabel;html=1;align=center;verticalAlign=middle;resizable=0;points=[];" vertex="1" connectable="0" parent="2MQ_-69pAGKDTEnByGKH-48">
          <mxGeometry x="0.5416" relative="1" as="geometry">
            <mxPoint x="11" as="offset" />
          </mxGeometry>
        </mxCell>
        <mxCell id="2MQ_-69pAGKDTEnByGKH-50" value="Has" style="edgeLabel;html=1;align=center;verticalAlign=middle;resizable=0;points=[];" vertex="1" connectable="0" parent="2MQ_-69pAGKDTEnByGKH-48">
          <mxGeometry x="-0.529" y="-3" relative="1" as="geometry">
            <mxPoint as="offset" />
          </mxGeometry>
        </mxCell>
        <mxCell id="2MQ_-69pAGKDTEnByGKH-51" value="" style="edgeStyle=entityRelationEdgeStyle;fontSize=12;html=1;endArrow=ERzeroToMany;startArrow=ERmandOne;rounded=0;exitX=1;exitY=0.5;exitDx=0;exitDy=0;entryX=0;entryY=0.5;entryDx=0;entryDy=0;" edge="1" parent="1" source="2MQ_-69pAGKDTEnByGKH-20" target="2MQ_-69pAGKDTEnByGKH-30">
          <mxGeometry width="100" height="100" relative="1" as="geometry">
            <mxPoint x="408.7199999999998" y="447" as="sourcePoint" />
            <mxPoint x="650" y="380" as="targetPoint" />
          </mxGeometry>
        </mxCell>
        <mxCell id="2MQ_-69pAGKDTEnByGKH-52" value="Creates" style="edgeLabel;html=1;align=center;verticalAlign=middle;resizable=0;points=[];" vertex="1" connectable="0" parent="2MQ_-69pAGKDTEnByGKH-51">
          <mxGeometry x="-0.7265" y="-2" relative="1" as="geometry">
            <mxPoint as="offset" />
          </mxGeometry>
        </mxCell>
        <mxCell id="2MQ_-69pAGKDTEnByGKH-53" value="Is created by" style="edgeLabel;html=1;align=center;verticalAlign=middle;resizable=0;points=[];" vertex="1" connectable="0" parent="2MQ_-69pAGKDTEnByGKH-51">
          <mxGeometry x="0.6444" y="2" relative="1" as="geometry">
            <mxPoint x="-15" y="7" as="offset" />
          </mxGeometry>
        </mxCell>
        <mxCell id="2MQ_-69pAGKDTEnByGKH-54" value="" style="edgeStyle=entityRelationEdgeStyle;fontSize=12;html=1;endArrow=ERzeroToMany;startArrow=ERmandOne;rounded=0;exitX=1;exitY=1;exitDx=0;exitDy=0;entryX=1;entryY=0.375;entryDx=0;entryDy=0;entryPerimeter=0;" edge="1" parent="1" source="2MQ_-69pAGKDTEnByGKH-27" target="2MQ_-69pAGKDTEnByGKH-31">
          <mxGeometry width="100" height="100" relative="1" as="geometry">
            <mxPoint x="470" y="430" as="sourcePoint" />
            <mxPoint x="860" y="320" as="targetPoint" />
          </mxGeometry>
        </mxCell>
        <mxCell id="2MQ_-69pAGKDTEnByGKH-55" value="Has" style="edgeLabel;html=1;align=center;verticalAlign=middle;resizable=0;points=[];" vertex="1" connectable="0" parent="2MQ_-69pAGKDTEnByGKH-54">
          <mxGeometry x="-0.6303" y="2" relative="1" as="geometry">
            <mxPoint as="offset" />
          </mxGeometry>
        </mxCell>
        <mxCell id="2MQ_-69pAGKDTEnByGKH-56" value="Is for" style="edgeLabel;html=1;align=center;verticalAlign=middle;resizable=0;points=[];" vertex="1" connectable="0" parent="2MQ_-69pAGKDTEnByGKH-54">
          <mxGeometry x="0.6364" y="1" relative="1" as="geometry">
            <mxPoint as="offset" />
          </mxGeometry>
        </mxCell>
        <mxCell id="2MQ_-69pAGKDTEnByGKH-57" value="" style="edgeStyle=entityRelationEdgeStyle;fontSize=12;html=1;endArrow=ERzeroToMany;startArrow=ERmandOne;rounded=0;exitX=1;exitY=0.5;exitDx=0;exitDy=0;entryX=0;entryY=0.5;entryDx=0;entryDy=0;" edge="1" parent="1" source="2MQ_-69pAGKDTEnByGKH-27" target="2MQ_-69pAGKDTEnByGKH-34">
          <mxGeometry width="100" height="100" relative="1" as="geometry">
            <mxPoint x="900" y="430" as="sourcePoint" />
            <mxPoint x="1000" y="330" as="targetPoint" />
          </mxGeometry>
        </mxCell>
        <mxCell id="2MQ_-69pAGKDTEnByGKH-58" value="Has" style="edgeLabel;html=1;align=center;verticalAlign=middle;resizable=0;points=[];" vertex="1" connectable="0" parent="2MQ_-69pAGKDTEnByGKH-57">
          <mxGeometry x="-0.7363" y="2" relative="1" as="geometry">
            <mxPoint as="offset" />
          </mxGeometry>
        </mxCell>
        <mxCell id="2MQ_-69pAGKDTEnByGKH-59" value="Is part of" style="edgeLabel;html=1;align=center;verticalAlign=middle;resizable=0;points=[];" vertex="1" connectable="0" parent="2MQ_-69pAGKDTEnByGKH-57">
          <mxGeometry x="0.7267" y="1" relative="1" as="geometry">
            <mxPoint x="-8" as="offset" />
          </mxGeometry>
        </mxCell>
        <mxCell id="2MQ_-69pAGKDTEnByGKH-60" value="" style="edgeStyle=entityRelationEdgeStyle;fontSize=12;html=1;endArrow=ERzeroToMany;startArrow=ERmandOne;rounded=0;entryX=0;entryY=0.25;entryDx=0;entryDy=0;exitX=1;exitY=0.75;exitDx=0;exitDy=0;" edge="1" parent="1" source="2MQ_-69pAGKDTEnByGKH-27" target="2MQ_-69pAGKDTEnByGKH-25">
          <mxGeometry width="100" height="100" relative="1" as="geometry">
            <mxPoint x="600" y="430" as="sourcePoint" />
            <mxPoint x="700" y="330" as="targetPoint" />
          </mxGeometry>
        </mxCell>
        <mxCell id="2MQ_-69pAGKDTEnByGKH-61" value="Is part of" style="edgeLabel;html=1;align=center;verticalAlign=middle;resizable=0;points=[];" vertex="1" connectable="0" parent="2MQ_-69pAGKDTEnByGKH-60">
          <mxGeometry x="-0.8034" relative="1" as="geometry">
            <mxPoint x="17" y="3" as="offset" />
          </mxGeometry>
        </mxCell>
        <mxCell id="2MQ_-69pAGKDTEnByGKH-62" value="Includes" style="edgeLabel;html=1;align=center;verticalAlign=middle;resizable=0;points=[];" vertex="1" connectable="0" parent="2MQ_-69pAGKDTEnByGKH-60">
          <mxGeometry x="0.5411" y="-1" relative="1" as="geometry">
            <mxPoint y="-2" as="offset" />
          </mxGeometry>
        </mxCell>
        <mxCell id="2MQ_-69pAGKDTEnByGKH-63" value="" style="edgeStyle=entityRelationEdgeStyle;fontSize=12;html=1;endArrow=ERmandOne;startArrow=ERmandOne;rounded=0;exitX=0.99;exitY=0.858;exitDx=0;exitDy=0;exitPerimeter=0;" edge="1" parent="1" source="2MQ_-69pAGKDTEnByGKH-20" target="2MQ_-69pAGKDTEnByGKH-23">
          <mxGeometry width="100" height="100" relative="1" as="geometry">
            <mxPoint x="392" y="550" as="sourcePoint" />
            <mxPoint x="661.04" y="724.99" as="targetPoint" />
          </mxGeometry>
        </mxCell>
        <mxCell id="2MQ_-69pAGKDTEnByGKH-64" value="Has" style="edgeLabel;html=1;align=center;verticalAlign=middle;resizable=0;points=[];" vertex="1" connectable="0" parent="2MQ_-69pAGKDTEnByGKH-63">
          <mxGeometry x="-0.6957" relative="1" as="geometry">
            <mxPoint as="offset" />
          </mxGeometry>
        </mxCell>
        <mxCell id="2MQ_-69pAGKDTEnByGKH-65" value="Belongs to" style="edgeLabel;html=1;align=center;verticalAlign=middle;resizable=0;points=[];" vertex="1" connectable="0" parent="2MQ_-69pAGKDTEnByGKH-63">
          <mxGeometry x="0.5893" y="1" relative="1" as="geometry">
            <mxPoint y="1" as="offset" />
          </mxGeometry>
        </mxCell>
        <mxCell id="2MQ_-69pAGKDTEnByGKH-67" value="" style="edgeStyle=entityRelationEdgeStyle;fontSize=12;html=1;endArrow=ERzeroToMany;startArrow=ERmandOne;rounded=0;exitX=0.984;exitY=0.424;exitDx=0;exitDy=0;exitPerimeter=0;entryX=0;entryY=0.823;entryDx=0;entryDy=0;entryPerimeter=0;" edge="1" parent="1" source="2MQ_-69pAGKDTEnByGKH-23" target="2MQ_-69pAGKDTEnByGKH-25">
          <mxGeometry width="100" height="100" relative="1" as="geometry">
            <mxPoint x="940" y="690" as="sourcePoint" />
            <mxPoint x="1040" y="590" as="targetPoint" />
          </mxGeometry>
        </mxCell>
        <mxCell id="2MQ_-69pAGKDTEnByGKH-68" value="Has" style="edgeLabel;html=1;align=center;verticalAlign=middle;resizable=0;points=[];" vertex="1" connectable="0" parent="2MQ_-69pAGKDTEnByGKH-67">
          <mxGeometry x="-0.5745" y="3" relative="1" as="geometry">
            <mxPoint as="offset" />
          </mxGeometry>
        </mxCell>
        <mxCell id="2MQ_-69pAGKDTEnByGKH-69" value="Is part of" style="edgeLabel;html=1;align=center;verticalAlign=middle;resizable=0;points=[];" vertex="1" connectable="0" parent="2MQ_-69pAGKDTEnByGKH-67">
          <mxGeometry x="0.6194" y="2" relative="1" as="geometry">
            <mxPoint as="offset" />
          </mxGeometry>
        </mxCell>
        <mxCell id="2MQ_-69pAGKDTEnByGKH-70" value="" style="edgeStyle=entityRelationEdgeStyle;fontSize=12;html=1;endArrow=ERzeroToMany;startArrow=ERmandOne;rounded=0;entryX=0;entryY=0.5;entryDx=0;entryDy=0;exitX=0.5;exitY=1;exitDx=0;exitDy=0;" edge="1" parent="1" source="2MQ_-69pAGKDTEnByGKH-20" target="2MQ_-69pAGKDTEnByGKH-32">
          <mxGeometry width="100" height="100" relative="1" as="geometry">
            <mxPoint x="320" y="860" as="sourcePoint" />
            <mxPoint x="420" y="760" as="targetPoint" />
          </mxGeometry>
        </mxCell>
        <mxCell id="2MQ_-69pAGKDTEnByGKH-71" value="Has" style="edgeLabel;html=1;align=center;verticalAlign=middle;resizable=0;points=[];" vertex="1" connectable="0" parent="2MQ_-69pAGKDTEnByGKH-70">
          <mxGeometry x="-0.636" y="-1" relative="1" as="geometry">
            <mxPoint as="offset" />
          </mxGeometry>
        </mxCell>
        <mxCell id="2MQ_-69pAGKDTEnByGKH-72" value="Are achieved" style="edgeLabel;html=1;align=center;verticalAlign=middle;resizable=0;points=[];" vertex="1" connectable="0" parent="2MQ_-69pAGKDTEnByGKH-70">
          <mxGeometry x="0.6054" y="1" relative="1" as="geometry">
            <mxPoint as="offset" />
          </mxGeometry>
        </mxCell>
        <mxCell id="2MQ_-69pAGKDTEnByGKH-73" value="" style="edgeStyle=entityRelationEdgeStyle;fontSize=12;html=1;endArrow=ERzeroToMany;startArrow=ERmandOne;rounded=0;exitX=1;exitY=1;exitDx=0;exitDy=0;entryX=0.981;entryY=0.199;entryDx=0;entryDy=0;entryPerimeter=0;" edge="1" parent="1" source="2MQ_-69pAGKDTEnByGKH-35" target="2MQ_-69pAGKDTEnByGKH-32">
          <mxGeometry width="100" height="100" relative="1" as="geometry">
            <mxPoint x="1460" y="170" as="sourcePoint" />
            <mxPoint x="1030" y="965" as="targetPoint" />
            <Array as="points">
              <mxPoint x="1320" y="595" />
            </Array>
          </mxGeometry>
        </mxCell>
        <mxCell id="2MQ_-69pAGKDTEnByGKH-74" value="Is part of" style="edgeLabel;html=1;align=center;verticalAlign=middle;resizable=0;points=[];" vertex="1" connectable="0" parent="2MQ_-69pAGKDTEnByGKH-73">
          <mxGeometry x="-0.7261" y="4" relative="1" as="geometry">
            <mxPoint as="offset" />
          </mxGeometry>
        </mxCell>
        <mxCell id="2MQ_-69pAGKDTEnByGKH-75" value="Include" style="edgeLabel;html=1;align=center;verticalAlign=middle;resizable=0;points=[];" vertex="1" connectable="0" parent="2MQ_-69pAGKDTEnByGKH-73">
          <mxGeometry x="0.8533" y="1" relative="1" as="geometry">
            <mxPoint as="offset" />
          </mxGeometry>
        </mxCell>
      </root>
    </mxGraphModel>
  </diagram>
</mxfile>
